<?xml version="1.0" encoding="UTF-8"?>
<svg id="_レイヤー_2" data-name="レイヤー_2" xmlns="http://www.w3.org/2000/svg" viewBox="0 0 372.21 108.6">
  <defs>
    <style>
      .cls-1 {
        fill: #040000;
      }

      .cls-2 {
        isolation: isolate;
      }
    </style>
  </defs>
  <g id="_レイヤー_2-2" data-name="_レイヤー_2">
    <g>
      <g>
        <path class="cls-1" d="M120.25,25.24s-.03.03-.04.04c.01-.01.03-.02.04-.03h0Z"/>
        <path class="cls-1" d="M144.5,56.72l-11.63-8.08c-.16-.11-.31-.22-.46-.33-4.21-3.13-6.06-6.02-6.06-9.45,0-4.54,3.68-7.37,8.93-7.37,6.66,0,9.79,3.12,13.76,3.12,3.12,0,5.24-2.13,5.24-5.25,0-2.27-1.13-4.11-4.11-5.53-4.68-2.27-9.8-3.12-15.32-3.12-5.81,0-10.92,1.7-14.6,4.54-1.28,1.22-2,2.91-1.99,4.67,0,0,0,0,0,0,0-1.75.7-3.42,1.95-4.64-.72.56-1.42,1.17-2.09,1.81-.03.04-.06.08-.1.12-4.21,4.54-7.72,11.16-10.53,20.46l-3.26,10.77c-5.82,18.99-15.03,28.07-29.36,28.07-15.73,0-25.65-10.91-25.66-27.06,0,.02,0,.04,0,.05,0-.03,0-.05,0-.08,0,0,0,.01,0,.02,0,0,0-.02,0-.02,0-16.17,9.92-27.23,24.24-27.23,4.71-.03,9.36.99,13.62,2.98,1.84.85,3.4,1.13,4.82,1.13,3.4,0,5.67-2.27,5.67-5.68,0-2.12-1.28-4.25-4.25-5.67-5.39-2.7-12.34-4.26-19.86-4.26-21.7,0-36.89,14.9-37.81,36.85-.03.71-.05,1.42-.05,2.15,0,6.16,1.07,11.76,3.07,16.67-2.95,6.34-7.43,9.71-13.28,9.71-6.81,0-11.77-4.11-11.77-13.47v-39.99h16.59c3.83,0,6.39-2.27,6.39-5.53s-2.55-5.53-6.39-5.53H13.61V7.09C13.61,2.84,10.78,0,6.81,0S0,2.84,0,7.09v67.07c0,15.6,8.94,23.82,24.11,23.82h0c3.15.02,6.29-.5,9.27-1.53.03,0,.06-.01.09-.02,4.94-1.84,8.9-5.1,11.71-9.74,6.74,7.27,16.76,11.44,29.27,11.44,6.52,0,12.19-1.27,17.3-3.97,10.35-5.39,17.72-16.31,22.83-33.04l2.97-9.78c-.04-.06-.08-.12-.12-.18,1.99,2.71,4.82,5.3,8.63,7.97l10.64,7.37c1.57,1.09,3,2.19,4.33,3.29,1.91,2.11,2.48,4.38,2.48,7.06,0,6.1-4.82,10.21-11.77,10.21s-12.35-3.41-15.46-3.41-5.25,2.13-5.25,5.25h0c0,2.28,1.14,4.12,4.12,5.54,4.11,1.98,10.77,3.69,16.73,3.69,7.51,0,13.75-2.27,18.15-6.24.34-.31.67-.65.98-1.01,3.37-3.61,5.4-8.45,5.4-14.02,0-8.51-3.4-14.18-11.91-20.14ZM113.59,39.15s0,0,0,0c0,.02,0,.04,0,.07,0-.02,0-.04,0-.06ZM115.37,47.71c.45.97.99,1.91,1.62,2.84-.64-.92-1.18-1.87-1.62-2.84Z"/>
      </g>
      <g class="cls-2">
        <g class="cls-2">
          <path d="M209.35,52.2c0,1.44-1.2,2.59-2.69,2.59s-2.69-1.15-2.69-2.59v-8.59h-15.75v8.59c0,1.44-1.25,2.59-2.69,2.59-1.54,0-2.69-1.15-2.69-2.59v-17.19c0-3.84,1.39-7.82,4.37-10.56,2.11-1.92,5.09-3.26,8.88-3.26s6.72,1.34,8.88,3.26c3.02,2.74,4.37,6.72,4.37,10.56v17.19ZM190.48,28.44c-1.49,1.63-2.26,3.98-2.26,6.82v3.6h15.75v-3.6c0-2.83-.72-5.23-2.21-6.82-1.34-1.49-3.41-2.26-5.66-2.26s-4.22.82-5.62,2.26Z"/>
          <path d="M216.11,23.78c0-1.44,1.2-2.59,2.69-2.59s2.69,1.15,2.69,2.59v28.42c0,1.44-1.25,2.59-2.69,2.59s-2.69-1.15-2.69-2.59v-28.42Z"/>
          <path d="M258.93,27.91c-2.26,0-3.89-1.87-7.97-1.87s-6.1,1.2-6.1,3.84c0,2.11,1.82,3.26,4.46,4.18,3.07,1.06,6.48,1.73,9.41,3.55,2.26,1.39,3.98,3.65,3.98,7.2,0,6.34-5.14,9.98-12.1,9.98-4.71,0-11.57-1.78-11.57-4.9,0-1.49,1.2-2.59,2.59-2.59,2.16,0,3.94,2.74,8.88,2.74,4.51,0,6.34-2.21,6.34-4.8,0-2.21-1.73-3.46-4.13-4.42-2.69-1.06-6.05-1.68-9.02-3.31-2.59-1.44-4.51-3.7-4.51-7.44,0-5.28,4.22-8.88,12.05-8.88,2.06,0,10.22.62,10.22,4.22,0,1.39-1.1,2.5-2.54,2.5Z"/>
          <path d="M268.62,32.47v-3.41c0-1.34,1.1-2.4,2.45-2.4s2.5,1.06,2.5,2.4v3.41h5.47c1.01,0,1.87.86,1.87,1.97s-.86,1.92-1.87,1.92h-5.47v10.46c0,2.54.86,3.84,3.07,3.84s2.78-1.58,4.22-1.58c1.25,0,1.87.91,1.87,1.97,0,1.2-1.2,2.16-2.64,2.83-1.3.58-2.83.91-4.37.91-5.18,0-7.11-3.36-7.11-7.54v-10.9h-1.82c-1.06,0-1.87-.86-1.87-1.92s.82-1.97,1.87-1.97h1.82Z"/>
          <path d="M285.95,34.44c0-1.3,1.1-2.4,2.45-2.4s2.5,1.1,2.5,2.4v10.18c0,1.58.19,2.64.72,3.6.77,1.39,2.3,2.35,4.75,2.35s3.98-.96,4.75-2.35c.53-.96.77-2.02.77-3.6v-10.18c0-1.3,1.06-2.4,2.45-2.4s2.45,1.1,2.45,2.4v10.56c0,2.78-.58,4.7-1.73,6.29-1.73,2.3-4.75,3.5-8.69,3.5s-6.96-1.2-8.64-3.5c-1.2-1.58-1.78-3.5-1.78-6.29v-10.56Z"/>
          <path d="M324.35,54.31c-3.79,0-7.2-1.01-9.5-3.12-1.97-1.73-3.17-4.32-3.17-7.68,0-2.74.72-5.38,2.3-7.44,1.87-2.45,4.9-4.03,9.02-4.03,1.58,0,2.83.19,4.13.62v-9.07c0-1.34,1.1-2.4,2.45-2.4s2.5,1.06,2.5,2.4v28.08c0,1.73-1.3,2.64-2.78,2.64h-4.94ZM327.14,50.18v-13.35c-1.25-.38-2.3-.58-3.84-.58-2.21,0-4.08,1.01-5.23,2.64-.86,1.2-1.34,2.74-1.34,4.51,0,2.16.72,3.74,1.87,4.8,1.54,1.44,3.79,1.97,6.29,1.97h2.26Z"/>
          <path d="M338.22,22.44c0-1.58,1.25-2.83,2.88-2.83s2.83,1.25,2.83,2.83-1.25,2.88-2.83,2.88-2.88-1.25-2.88-2.88ZM341.1,32.04c1.39,0,2.45,1.1,2.45,2.4v17.95c0,1.34-1.15,2.4-2.45,2.4-1.39,0-2.45-1.06-2.45-2.4v-17.95c0-1.3,1.06-2.4,2.45-2.4Z"/>
          <path d="M352.24,35.21c2.11-1.97,5.04-3.17,8.3-3.17s6.19,1.2,8.3,3.17c2.11,2.02,3.36,4.85,3.36,8.21s-1.2,6.29-3.36,8.26c-2.06,1.97-5.09,3.12-8.3,3.12s-6.24-1.15-8.3-3.12c-2.16-1.97-3.41-4.85-3.41-8.26s1.3-6.19,3.41-8.21ZM355.6,48.55c1.2,1.3,2.93,2.11,4.95,2.11s3.7-.82,4.9-2.11c1.2-1.34,1.92-3.07,1.92-5.14s-.72-3.79-1.92-5.14c-1.2-1.3-2.93-2.11-4.9-2.11s-3.75.82-4.95,2.11c-1.2,1.34-1.87,3.07-1.87,5.14s.67,3.79,1.87,5.14Z"/>
        </g>
        <g class="cls-2">
          <path d="M199.26,69.48v25.83c0,1.44-1.25,2.59-2.69,2.59s-2.69-1.15-2.69-2.59v-25.83h-8.98c-1.25,0-2.3-1.06-2.3-2.35s1.06-2.4,2.3-2.4h23.28c1.3,0,2.35,1.1,2.35,2.4s-1.06,2.35-2.35,2.35h-8.93Z"/>
          <path d="M212.07,78.31c2.11-1.97,5.04-3.17,8.31-3.17s6.19,1.2,8.3,3.17c2.11,2.02,3.36,4.85,3.36,8.21s-1.2,6.29-3.36,8.26c-2.06,1.97-5.09,3.12-8.3,3.12s-6.24-1.15-8.31-3.12c-2.16-1.97-3.41-4.85-3.41-8.26s1.3-6.19,3.41-8.21ZM215.43,91.65c1.2,1.3,2.93,2.11,4.95,2.11s3.7-.82,4.9-2.11c1.2-1.34,1.92-3.07,1.92-5.14s-.72-3.79-1.92-5.14c-1.2-1.3-2.93-2.11-4.9-2.11s-3.75.82-4.95,2.11c-1.2,1.34-1.87,3.07-1.87,5.14s.67,3.79,1.87,5.14Z"/>
          <path d="M248.55,84.98l7.49,9.26c.29.38.43.82.43,1.25,0,1.34-1.2,2.4-2.45,2.4-.77,0-1.49-.43-1.97-1.06l-6.96-8.78-2.88,2.59v4.85c0,1.34-1.15,2.4-2.45,2.4-1.39,0-2.45-1.06-2.45-2.4v-28.75c0-1.34,1.06-2.4,2.45-2.4s2.45,1.06,2.45,2.4v18.24l9.65-9.12c.43-.43,1.06-.72,1.68-.72,1.34,0,2.26,1.15,2.26,2.3,0,.58-.24,1.15-.67,1.58l-6.58,5.95Z"/>
          <path d="M282.82,77.78c0,.67-.34,1.39-.53,1.92l-7.3,18.87c-2.59,6.82-6.91,10.03-11.47,10.03-1.34,0-2.4-1.06-2.4-2.4s1.06-2.35,2.4-2.35c2.88,0,4.71-1.78,6.14-5.04l-8.64-19.11c-.24-.53-.58-1.25-.58-1.82,0-1.54,1.25-2.74,2.74-2.74s2.3,1.06,2.59,1.78l6.34,15.51,5.38-15.07c.53-1.44,1.39-2.21,2.64-2.21,1.49,0,2.69,1.15,2.69,2.64Z"/>
          <path d="M289.54,78.31c2.11-1.97,5.04-3.17,8.31-3.17s6.19,1.2,8.3,3.17c2.11,2.02,3.36,4.85,3.36,8.21s-1.2,6.29-3.36,8.26c-2.06,1.97-5.09,3.12-8.3,3.12s-6.24-1.15-8.31-3.12c-2.16-1.97-3.41-4.85-3.41-8.26s1.3-6.19,3.41-8.21ZM292.9,91.65c1.2,1.3,2.93,2.11,4.95,2.11s3.7-.82,4.9-2.11c1.2-1.34,1.92-3.07,1.92-5.14s-.72-3.79-1.92-5.14c-1.2-1.3-2.93-2.11-4.9-2.11s-3.75.82-4.95,2.11c-1.2,1.34-1.87,3.07-1.87,5.14s.67,3.79,1.87,5.14Z"/>
        </g>
      </g>
    </g>
  </g>
</svg>