<?xml version="1.0" encoding="UTF-8"?>
<svg id="_レイヤー_2" data-name="レイヤー 2" xmlns="http://www.w3.org/2000/svg" viewBox="0 0 411.9 98.13">
  <defs>
    <style>
      .cls-1 {
        fill: #040000;
        stroke-width: 0px;
      }
    </style>
  </defs>
  <g id="_レイヤー_1-2" data-name="レイヤー 1">
    <g>
      <path class="cls-1" d="M111.03,88.91c0,2.27,1.14,4.11,4.12,5.53,4.11,1.98,10.77,3.69,16.73,3.69,7.51,0,13.75-2.27,18.15-6.24,1.42-1.28,2.61-2.99,2.85-5.25.55-5.17-4.9-13.81-16.18-20.14,5.48,3.08,6.81,6.24,6.81,10.35,0,6.1-4.82,10.21-11.77,10.21s-12.35-3.41-15.46-3.41-5.25,2.13-5.25,5.25"/>
      <polygon class="cls-1" points="186.49 24.44 196.25 24.44 196.25 7.03 203.17 7.03 203.17 0 179.57 0 179.57 7.03 186.49 7.03 186.49 24.44"/>
      <polygon class="cls-1" points="210.36 24.44 215.33 9.82 220.3 24.44 229.84 24.44 220.49 0 210.17 0 200.82 24.44 210.36 24.44"/>
      <polygon class="cls-1" points="234.42 24.44 244.18 24.44 244.18 7.03 251.1 7.03 251.1 0 227.5 0 227.5 7.03 234.42 7.03 234.42 24.44"/>
      <polygon class="cls-1" points="258.29 24.44 263.26 9.82 268.23 24.44 277.77 24.44 268.42 0 258.1 0 248.75 24.44 258.29 24.44"/>
      <path class="cls-1" d="M351.92,41.91c1.29,2.9,2.75,5.71,4.38,8.43l6.37,10.75h4.62v-24.44h-4.13v8.53c0,3.74.09,6.88.4,10.13l-.08.03c-1.2-2.82-2.59-5.56-4.17-8.19l-6.31-10.49h-5.1v24.44h4.13v-8.75c0-4.01-.06-7.24-.24-10.41l.13-.02Z"/>
      <path class="cls-1" d="M332.37,44.78c.43-1.46.81-3.15,1.17-4.59h.07c.37,1.41.77,3.08,1.24,4.59l1.93,6.02h-6.3l1.89-6.02ZM329.76,54.19h7.76l2.21,6.91h4.79l-7.94-24.44h-5.68l-7.84,24.44h4.61l2.09-6.91Z"/>
      <path class="cls-1" d="M257,57.78c-2.07-.02-4.1-.55-5.9-1.56l-.99,3.7c1.33.82,4.02,1.56,6.6,1.56,6.31,0,9.27-3.41,9.27-7.35,0-3.51-2.04-5.65-6.28-7.26-3.27-1.25-4.68-2.13-4.68-4,0-1.44,1.2-2.94,4.04-2.94,1.69-.01,3.37.39,4.88,1.16l1.07-3.6c-1.28-.65-3.22-1.21-5.86-1.21-5.3,0-8.65,3.02-8.65,7.02,0,3.5,2.58,5.67,6.63,7.1,3.08,1.12,4.33,2.21,4.33,4.05-.02,2-1.61,3.34-4.46,3.34"/>
      <path class="cls-1" d="M192.84,39.96c1.63-.02,3.26.31,4.76.95l.97-3.55c-.9-.49-2.98-1.08-5.92-1.08-7.47,0-13.08,4.84-13.08,12.89,0,7.44,4.72,12.31,12.48,12.31,2.96,0,5.29-.58,6.34-1.11l-.73-3.52c-1.18.53-3.06.89-4.87.89-5.38,0-8.51-3.41-8.51-8.8,0-5.87,3.57-8.98,8.56-8.98"/>
      <polygon class="cls-1" points="317.62 61.09 317.62 40.41 324.67 40.41 324.67 36.66 306.18 36.66 306.18 40.41 313.16 40.41 313.16 61.09 317.62 61.09"/>
      <path class="cls-1" d="M406.85,36.66l-2.95,6.26c-.83,1.78-1.51,3.29-2.11,4.84h-.07c-.67-1.66-1.3-3.04-2.14-4.84l-2.9-6.26h-5.1l7.73,14.27v10.17h4.47v-10.29l8.12-14.14h-5.05Z"/>
      <path class="cls-1" d="M211.34,57.91h-.04c-4.27,0-6.76-4.11-6.75-8.97.01-4.86,2.34-9.13,6.8-9.13s6.74,4.36,6.74,8.97c0,5.12-2.44,9.13-6.75,9.13h0ZM211.51,36.26c-6.9,0-11.64,5.3-11.64,12.81s4.37,12.44,11.28,12.44h.04c6.69,0,11.65-4.68,11.65-12.87,0-6.99-4.2-12.37-11.33-12.37"/>
      <path class="cls-1" d="M384.42,39.96c1.64-.02,3.26.31,4.76.95l.98-3.55c-.91-.49-2.98-1.08-5.92-1.08-7.47,0-13.09,4.84-13.09,12.89,0,7.44,4.73,12.31,12.49,12.31,2.95,0,5.28-.58,6.34-1.11l-.74-3.52c-1.18.53-3.06.89-4.87.89-5.37,0-8.51-3.42-8.51-8.8-.01-5.87,3.58-8.98,8.56-8.98"/>
      <polygon class="cls-1" points="298.61 36.66 294.14 36.66 294.14 61.09 308.66 61.09 308.66 57.35 298.61 57.35 298.61 36.66"/>
      <path class="cls-1" d="M289.06,50.61v-13.96h-4.47v14.25c0,4.79-1.93,7-5.15,7-3.02,0-5.01-2.22-5.01-7v-14.25h-4.46v13.98c0,7.69,3.67,10.86,9.31,10.86s9.78-3.35,9.78-10.88"/>
      <path class="cls-1" d="M246.06,36.66h-4.13v8.53c0,3.73.09,6.88.4,10.13l-.08.03c-1.2-2.82-2.59-5.56-4.17-8.19l-6.31-10.49h-5.1v24.44h4.13v-8.75c0-4.01-.06-7.24-.23-10.41l.11-.03c1.29,2.9,2.75,5.71,4.38,8.43l6.37,10.75h4.63v-24.43Z"/>
      <rect class="cls-1" x="260.69" y="73.31" width="4.47" height="24.44"/>
      <path class="cls-1" d="M225.14,84.53h-2.62v-7.66c.91-.18,1.83-.25,2.75-.22,2.87,0,4.72,1.25,4.72,3.89,0,2.41-1.85,3.99-4.85,3.99M230,86.29v-.1c2.3-.81,4.41-2.94,4.41-6.06,0-2.08-.77-3.76-2.09-4.87-1.63-1.37-4.46-1.95-7.48-1.95-2.25-.04-4.5.14-6.71.52v23.92h4.39v-9.97h2.23c2.52.06,3.67,1.09,4.37,4.24.67,3.01,1.26,5.01,1.63,5.72h4.55c-.49-.95-1.15-3.73-1.92-6.76-.6-2.36-1.62-4.03-3.38-4.69"/>
      <path class="cls-1" d="M249.75,84.49c-.95,2.97-1.84,5.95-2.48,8.84h-.08c-.64-2.96-1.47-5.82-2.4-8.9l-3.33-11.11h-4.87l7.9,24.43h5.12l8.44-24.43h-4.75l-3.55,11.18Z"/>
      <polygon class="cls-1" points="296.05 86.91 305.26 86.91 305.26 83.26 296.05 83.26 296.05 76.98 305.81 76.98 305.81 73.31 291.58 73.31 291.58 97.75 306.35 97.75 306.35 94.07 296.05 94.07 296.05 86.91"/>
      <path class="cls-1" d="M282.27,76.61c1.64-.02,3.26.31,4.77.95l.97-3.55c-.91-.49-2.98-1.08-5.92-1.08-7.47,0-13.09,4.85-13.09,12.89,0,7.44,4.73,12.31,12.49,12.31,2.96,0,5.28-.58,6.34-1.11l-.74-3.52c-1.18.53-3.05.89-4.87.89-5.37,0-8.51-3.42-8.51-8.8-.01-5.87,3.57-8.98,8.56-8.98"/>
      <path class="cls-1" d="M189.16,83.52c-3.27-1.25-4.68-2.13-4.68-4,0-1.44,1.2-2.94,4.04-2.94,1.69-.01,3.37.39,4.88,1.16l1.07-3.6c-1.27-.65-3.22-1.21-5.86-1.21-5.3,0-8.65,3.02-8.65,7.02,0,3.5,2.58,5.67,6.63,7.1,3.09,1.12,4.33,2.21,4.33,4.05,0,2-1.59,3.34-4.44,3.34-2.07-.02-4.1-.55-5.9-1.56l-1,3.7c1.34.82,4.02,1.56,6.61,1.56,6.31,0,9.27-3.41,9.27-7.35-.02-3.51-2.06-5.65-6.3-7.26"/>
      <polygon class="cls-1" points="203.92 86.91 213.13 86.91 213.13 83.26 203.92 83.26 203.92 76.98 213.68 76.98 213.68 73.31 199.45 73.31 199.45 97.75 214.22 97.75 214.22 94.07 203.92 94.07 203.92 86.91"/>
      <path class="cls-1" d="M318.78,83.52c-3.27-1.25-4.68-2.13-4.68-4,0-1.44,1.2-2.94,4.04-2.94,1.69-.01,3.37.39,4.88,1.16l1.07-3.6c-1.27-.65-3.22-1.21-5.86-1.21-5.3,0-8.65,3.02-8.65,7.02,0,3.5,2.58,5.67,6.63,7.1,3.08,1.12,4.33,2.21,4.33,4.05,0,2-1.6,3.34-4.44,3.34-2.07-.02-4.1-.55-5.91-1.56l-.99,3.7c1.34.82,4.02,1.56,6.61,1.56,6.31,0,9.27-3.41,9.27-7.35-.02-3.51-2.06-5.65-6.3-7.26"/>
      <path class="cls-1" d="M33.47,96.43c5.68-2.12,10.06-6.1,12.9-11.91l-6.38-11.49c-2.84,8.51-7.8,13.05-14.61,13.05s-11.77-4.11-11.77-13.47l-.15,5.38c-1.24,11.42,5.57,21.59,20.01,18.44"/>
      <path class="cls-1" d="M49.21,59.42c0,25.39,10.21,39.57,42.54,34.74,10.35-5.39,17.72-16.31,22.83-33.04l2.97-9.78c-2.83-3.69-3.96-7.8-3.96-12.19,0-4.68,1.7-8.93,4.53-12.05-4.25,4.54-7.8,11.2-10.63,20.57l-3.26,10.77c-5.82,18.99-15.03,28.07-29.36,28.07-15.74,0-25.66-10.92-25.66-27.08"/>
      <path class="cls-1" d="M91.75,94.16c-32.33,4.82-42.54-12.48-42.54-34.73,0-16.17,9.92-27.23,24.24-27.23,4.71-.04,9.36.98,13.62,2.98,1.84.85,3.4,1.13,4.82,1.13,3.4,0,5.67-2.27,5.67-5.68,0-2.12-1.28-4.25-4.25-5.67-5.39-2.7-12.34-4.26-19.86-4.26-22.4,0-37.86,15.88-37.86,39s14.89,38.43,38.86,38.43c6.52,0,12.19-1.27,17.3-3.97"/>
      <path class="cls-1" d="M35.59,59.7c0-23.12,15.46-38.99,37.86-38.99,7.52,0,14.47,1.57,19.86,4.25,2.97,1.42,4.25,3.55,4.25,5.67,0,3.4-2.27,5.68-5.67,5.68-1.42,0-2.98-.28-4.82-1.13-4.26-1.99-8.91-3.01-13.62-2.98-19.71,0-37.86,12.47-37.86,27.5"/>
      <path class="cls-1" d="M120.25,25.24c-1.28,1.22-2,2.91-1.99,4.68,0,4.68,4.4,11.63,14.61,18.72l11.63,8.08c8.51,5.96,11.91,11.63,11.91,20.14,0,6.1-2.41,11.34-6.38,15.03,1.42-1.28,2.27-2.98,2.27-5.25,0-4.96-4.97-12.76-15.6-20.14l-10.64-7.37c-8.93-6.24-12.47-12.05-12.47-19.99,0-4.68,1.7-8.93,4.53-12.05.68-.65,1.39-1.27,2.13-1.84"/>
      <path class="cls-1" d="M132.87,48.65c-4.54-3.26-6.52-6.24-6.52-9.79,0-4.54,3.68-7.37,8.93-7.37,6.66,0,9.79,3.12,13.76,3.12,3.12,0,5.24-2.13,5.24-5.25,0-2.27-1.13-4.11-4.11-5.53-4.68-2.27-9.8-3.12-15.32-3.12-5.81,0-10.92,1.7-14.6,4.54-1.28,1.22-2,2.91-1.99,4.68,0,4.67,4.4,11.62,14.61,18.72"/>
      <path class="cls-1" d="M0,35.17c0-8.51,5.53-13.61,13.61-13.61V7.09C13.61,2.84,10.78,0,6.81,0S0,2.84,0,7.09v28.08Z"/>
      <path class="cls-1" d="M24.11,97.99c3.18.01,6.35-.52,9.36-1.57-14.33,2.41-19.71-7.44-19.86-18.43v-45.37h16.59c3.83,0,6.39-2.27,6.39-5.53s-2.55-5.53-6.39-5.53H13.61c-8.08,0-13.61,5.1-13.61,13.61v38.99c0,15.6,8.94,23.82,24.11,23.82"/>
    </g>
  </g>
</svg>